<svg width="187" height="214" viewBox="0 0 187 214" fill="none" xmlns="http://www.w3.org/2000/svg">
<path d="M100.428 0C115.839 0.000121623 129.826 6.09213 140.115 15.998L120.43 53.8809H139.87L151.427 31.2334C155.412 39.0347 157.66 47.871 157.66 57.2324V156.768C157.66 188.376 132.036 214 100.428 214C79.5126 214 61.2182 202.781 51.2334 186.032L77.5791 204.366L67.1924 170.034L95.7744 148.364L59.9141 147.634L48.1377 113.754L43.1943 127.974V57.2324C43.1944 25.6238 68.8191 0 100.428 0ZM43.1943 156.768C43.1944 167.461 46.1283 177.469 51.2334 186.032L48.1377 183.879L18.6963 204.366L29.082 170.034L0.5 148.364L36.3604 147.634L43.1943 127.974V156.768ZM186.093 53.8809H166.651L153.329 27.5068L151.427 31.2334C148.517 25.5365 144.68 20.3923 140.115 15.998L145.58 5.4834H160.942L186.093 53.8809Z" fill="#16B269"/>
</svg>
