<svg width="210" height="190" viewBox="0 0 210 190" fill="none" xmlns="http://www.w3.org/2000/svg">
<path d="M90.3799 74.417L67.6006 74.8818L90.3799 92.1514V189.398H9.96875C4.46339 189.398 0 184.935 0 179.43V9.96777C0.000148583 4.46254 4.46348 0 9.96875 0H90.3799V74.417ZM109.984 189.398H100.016V140.235L109.984 133.299V189.398ZM200.031 0C205.537 0 210 4.46339 210 9.96875V179.43C210 184.935 205.537 189.398 200.031 189.398H119.62V126.594L128.592 120.352L166.286 146.581L152.988 102.626L189.583 74.8818L143.669 73.9463L128.592 30.5693L119.62 56.3789V0H200.031ZM100.016 140.235L90.8975 146.581L100.016 116.441V140.235ZM119.62 126.594L109.984 133.299V74.0176L113.514 73.9463L119.62 56.3789V126.594ZM104.195 102.626L100.016 116.441V99.457L104.195 102.626ZM100.016 99.457L90.3799 92.1514V74.417L100.016 74.2207V99.457ZM109.984 74.0176L100.016 74.2207V0H109.984V74.0176Z" fill="#16B269"/>
</svg>
