<svg width="205" height="214" viewBox="0 0 205 214" fill="none" xmlns="http://www.w3.org/2000/svg">
<path d="M140.244 0C175.779 0.00019956 204.586 28.8069 204.586 64.3418V149.658C204.586 185.193 175.779 214 140.244 214H103.273C67.7385 214 38.9319 185.193 38.9316 149.658V76.1816L47.6377 70.124L77.0791 90.6113L66.6924 56.2803L95.2744 34.6104L59.4141 33.8799L55.1543 21.627C66.9405 8.35933 84.1309 8.25468e-05 103.273 0H140.244ZM122.072 62.2764C117.797 62.2764 113.521 62.8327 109.245 63.9443C104.969 64.9706 101.035 66.5525 97.4434 68.6904C93.9372 70.8283 91.1154 73.5653 88.9775 76.9004C86.8397 80.2355 85.7705 84.2122 85.7705 88.8301C85.7706 93.7043 86.9679 97.7661 89.3623 101.016C91.7568 104.18 94.9207 106.746 98.8545 108.713C102.874 110.594 107.193 112.005 111.811 112.945L122.201 114.998C126.819 115.853 130.582 117.136 133.489 118.847C136.397 120.472 137.851 122.78 137.851 125.773C137.851 127.997 137.081 129.793 135.542 131.161C134.003 132.444 132.078 133.384 129.77 133.982C127.461 134.496 125.066 134.753 122.586 134.753C117.882 134.753 113.863 133.769 110.527 131.802C107.278 129.835 105.055 126.799 103.857 122.694L85.3857 129.365C88.0368 136.206 92.5264 141.551 98.8545 145.399C105.268 149.162 113.136 151.044 122.457 151.044C126.904 151.044 131.266 150.445 135.542 149.248C139.818 147.965 143.666 146.126 147.087 143.731C150.593 141.337 153.372 138.387 155.425 134.881C157.563 131.289 158.631 127.227 158.631 122.694C158.631 118.248 157.691 114.571 155.81 111.663C153.928 108.756 151.448 106.447 148.369 104.736C145.376 102.941 142.084 101.529 138.492 100.503C134.9 99.3912 131.351 98.4927 127.845 97.8086L116.3 95.5C113.392 94.9014 111.041 93.8322 109.245 92.293C107.449 90.7537 106.551 88.9152 106.551 86.7773C106.551 84.1263 107.834 82.1163 110.399 80.748C113.05 79.2943 116.343 78.5674 120.276 78.5674C124.296 78.5674 127.717 79.3376 130.539 80.877C133.446 82.4162 135.456 84.6395 136.567 87.5469L154.911 80.877C153.115 76.4301 150.507 72.8805 147.087 70.2295C143.666 67.4929 139.774 65.483 135.413 64.2002C131.137 62.9175 126.69 62.2764 122.072 62.2764ZM55.1543 21.627C45.0614 32.9885 38.9317 47.9494 38.9316 64.3418V76.1816L18.1963 90.6113L28.582 56.2803L0 34.6104L35.8604 33.8799L47.6377 0L55.1543 21.627Z" fill="#16B269"/>
</svg>
