<svg width="201" height="214" viewBox="0 0 201 214" fill="none" xmlns="http://www.w3.org/2000/svg">
<path d="M187.09 0C194.231 0.000254811 200.02 5.7895 200.02 12.9307V185.553C200.02 201.263 187.284 214 171.573 214C112.764 214 62.2918 178.308 40.6338 127.405L43.8193 125.189L70.5928 143.819L61.1475 112.6L87.1396 92.8945L54.5293 92.2295L43.8193 61.4209L33.1104 92.2295L30.8066 92.2764C29.8392 85.5787 29.3369 78.7302 29.3369 71.7646V12.9307C29.3369 5.78938 35.1263 6.17127e-05 42.2676 0H187.09ZM30.8066 92.2764C32.5815 104.564 35.9274 116.344 40.6338 127.405L17.0469 143.819L26.4922 112.6L0.5 92.8945L30.8066 92.2764Z" fill="#16B269"/>
</svg>
