<svg width="215" height="214" viewBox="0 0 215 214" fill="none" xmlns="http://www.w3.org/2000/svg">
<path d="M107.5 0C166.594 0 214.5 47.9055 214.5 107C214.5 166.094 166.594 214 107.5 214C48.4055 214 0.5 166.094 0.5 107C0.5 84.6849 7.33145 63.9655 19.0166 46.8184L31.4971 56.2803L21.1104 90.6113L50.5518 70.124L79.9932 90.6113L69.6074 56.2803L98.1895 34.6104L62.3291 33.8799L55.2754 13.5889C70.7221 4.93433 88.5348 0 107.5 0ZM29.1992 34.0742C25.4934 38.0514 22.0877 42.3118 19.0166 46.8184L2.91504 34.6104L29.1992 34.0742ZM38.7754 33.8799L29.1992 34.0742C33.4412 29.5216 38.0761 25.3401 43.0488 21.582L38.7754 33.8799ZM55.2754 13.5889C51.011 15.9782 46.927 18.6512 43.0488 21.582L50.5518 0L55.2754 13.5889Z" fill="#16B269"/>
</svg>
