<svg width="267" height="215" viewBox="0 0 267 215" fill="none" xmlns="http://www.w3.org/2000/svg">
<path d="M196.784 0C235.338 0 266.593 31.2544 266.593 69.8086V144.604C266.593 182.857 235.825 213.923 197.687 214.406L196.784 214.412H121.989L121.087 214.406C83.249 213.927 52.6658 183.344 52.1865 145.506L52.1807 144.604V129.995L77.7275 147.772L67.3213 113.375L83.8799 100.82V144.604C83.8799 165.651 100.942 182.713 121.989 182.713H196.784C217.832 182.713 234.894 165.651 234.894 144.604V69.8086C234.894 48.7611 217.832 31.6992 196.784 31.6992H121.989C100.942 31.6994 83.8799 48.7613 83.8799 69.8086V91.417L60.0283 90.9316L52.1963 68.3984C52.9473 30.4953 83.9064 0.000179943 121.989 0H196.784ZM52.1963 68.3984C52.187 68.8674 52.1807 69.3374 52.1807 69.8086V129.995L48.2295 127.246L18.7314 147.772L29.1377 113.375L0.5 91.6631L36.4297 90.9316L48.2295 56.9863L52.1963 68.3984ZM95.958 91.6631L83.8799 100.82V91.417L95.958 91.6631Z" fill="#16B269"/>
</svg>
