<svg width="214" height="202" viewBox="0 0 214 202" fill="none" xmlns="http://www.w3.org/2000/svg">
<path d="M153.644 183.22L126.766 201.924L136.114 171.021L153.644 183.22ZM173.415 137.717L214.001 138.544L181.652 163.068L193.407 201.924L164.489 181.802L149.107 130.956L155.479 112.623L162.771 107.096L173.415 137.717ZM130.27 72.2227L206.714 73.7803L162.771 107.096L160.086 99.3721L155.479 112.623L145.785 119.974L149.107 130.956L146.758 137.717L106.172 138.544L138.521 163.068L136.114 171.021L105.165 149.485L42.4043 193.158L64.5459 119.974L34.2949 97.0391L53.9141 83.3877L87.2354 106.574L76.8623 72.2871L80.0615 72.2227L83.8252 61.3916L107.829 43.1943L90.2754 42.8359L105.165 0L130.27 72.2227ZM164.489 181.802L167.926 193.158L153.644 183.22L160.086 178.737L164.489 181.802ZM34.2949 97.0391L20.5938 106.574L25.4961 90.3682L34.2949 97.0391ZM25.4961 90.3682L3.61621 73.7803L30.6816 73.2285L25.4961 90.3682ZM67.2432 42.3672L90.2754 42.8359L83.8252 61.3916L75.4805 67.7197L76.8623 72.2871L30.6816 73.2285L32.3486 67.7197L0 43.1943L40.5859 42.3672L53.9141 4.02344L67.2432 42.3672Z" fill="#16B269"/>
</svg>
